<svg id="Layer_1" data-name="Layer 1" xmlns="http://www.w3.org/2000/svg" viewBox="0 0 48 48"><title>19. Suitcase</title><path d="M41.93,41.34H6.07a4.28,4.28,0,0,1-4.28-4.28V17.82a4.28,4.28,0,0,1,4.28-4.28H41.93a4.29,4.29,0,0,1,4.29,4.28V37.06A4.29,4.29,0,0,1,41.93,41.34ZM6.07,15.54a2.28,2.28,0,0,0-2.28,2.28V37.06a2.28,2.28,0,0,0,2.28,2.28H41.93a2.29,2.29,0,0,0,2.29-2.28V17.82a2.29,2.29,0,0,0-2.29-2.28Z"/><path d="M34,14.54H32v-2A3.93,3.93,0,0,0,28,8.66H20A3.93,3.93,0,0,0,16,12.58v2H14v-2A5.93,5.93,0,0,1,20,6.66H28A5.93,5.93,0,0,1,34,12.58Z"/><path d="M19.64,26.88a1,1,0,0,1-.34-.06L2.43,20.77a1,1,0,1,1,.68-1.88L20,24.94a1,1,0,0,1-.33,1.94Z"/><path d="M28.36,26.88A1,1,0,0,1,28,24.94l16.86-6.05a1,1,0,1,1,.68,1.88L28.7,26.82A1,1,0,0,1,28.36,26.88Z"/><path d="M27.91,32H20.09a2.38,2.38,0,0,1-2.37-2.37V27.17a2.37,2.37,0,0,1,2.37-2.37h7.82a2.37,2.37,0,0,1,2.37,2.37v2.48A2.38,2.38,0,0,1,27.91,32ZM20.09,26.8a.37.37,0,0,0-.37.37v2.48a.38.38,0,0,0,.37.37h7.82a.38.38,0,0,0,.37-.37V27.17a.38.38,0,0,0-.37-.37Z"/></svg>